<svg xmlns="http://www.w3.org/2000/svg" xmlns:xlink="http://www.w3.org/1999/xlink" version="1.1" height="408.65225798837815" width="408.6190643310547" viewBox="0 0 408.6190643310547 408.65225798837815"><g id="SvgjsG1012" rel="mainfill" name="main_text" xmlns:name="mainText_mainfill" fill="#ff0000" transform="translate(159.32030998170376,153.80285361882287)"><path d="M0.17969 55.5683625 l4.874 -35.69 l1.2578 0.22461 l1.1006 -0.58398 l1.415 4.3125 l1.6621 -3.8184 l1.3701 -0.35938 l4.9414 18.126 l1.0557 0.13477 l5.4131 -17.946 l1.1455 0.56152 l2.2686 -1.5723 l1.6172 1.1455 l1.2354 -0.17969 l4.1777 35.421 l-1.5947 -1.1904 l-1.0332 1.7969 l-2.1113 -2.7627 l-1.0557 3.1221 l-0.65137 -0.044922 l-2.1563 -19.271 l-1.0557 0.22461 l-5.6602 18.396 l-0.22461 0.1123 l-1.6621 -3.8184 l-0.78613 3.5713 l-0.44922 -0.044922 l-4.9639 -17.879 l-0.96582 -0.044922 l-2.6279 18.396 l-0.5166 -0.22461 l-1.1006 0.49414 l-1.5498 -2.9424 l-2.7178 2.6729 z M36.0272953125 44.8770625 q-0.08984375 -1.235351563 -0.1123046875 -2.470703125 q0 -1.370117188 0.134765625 -2.740234375 q0.44921875 -4.694335938 1.302734375 -7.3671875 t2.5156 -4.0879 q0.6064453125 -0.5166015625 1.538574219 -1.044433594 t2.0889 -0.9209 t2.4819 -0.55029 q0.62890625 -0.0673828125 1.2578125 -0.0673828125 l1.415 0.089844 l-0.089844 2.6729 l2.2461 -1.3701 l0.96582 1.415 l1.5273 -0.60645 q1.70703125 1.751953125 2.616699219 5.020019531 t0.90967 8.0073 q0 1.572265625 -0.1796875 3.436523438 t-0.64014 3.6499 t-1.2241 3.2793 t-1.9092 2.3247 q-1.6171875 1.145507813 -3.245605469 1.751953125 t-3.1782 0.76367 q-0.71875 0.0673828125 -1.4375 0.0673828125 q-0.7861328125 0 -1.504882813 -0.08984375 q-1.370117188 -0.1796875 -2.493164063 -0.6064453125 q-1.415039063 -0.5166015625 -2.459472656 -2.077636719 t-1.6846 -3.7173 t-0.84229 -4.7617 z M41.5077953125 40.6770625 q-0.0673828125 0.8759765625 -0.044921875 1.729492188 q0 1.6171875 0.224609375 3.189453125 q0.3369140625 2.380859375 1.2578125 3.818359375 q0.44921875 0.7412109375 1.325195313 1.111816406 t1.8643 0.37061 t1.8867 -0.34814 t1.3701 -1.0894 q0.44921875 -0.7412109375 0.8872070313 -2.145019531 t0.69629 -3.0996 t0.30322 -3.5376 l0 -0.49414 q0 -1.572265625 -0.26953125 -3.032226563 q-0.2919921875 -1.684570313 -0.9770507813 -3.009765625 t-1.853 -2.0215 q-0.7412109375 -0.44921875 -1.729492188 -0.44921875 l-0.1123 0 q-1.055664063 0.0224609375 -1.819335938 0.71875 q-1.325195313 1.190429688 -2.077636719 3.470214844 t-0.93213 4.8179 z M58.7578115625 26.2790625 l0.74121 -0.31445 l2.0664 3.751 l0.83105 -3.3018 l1.3252 0.9209 l1.0107 -1.2803 l4.2676 22.483 l0.83105 -0.22461 l5.5703 -22.124 l0.78613 0.35938 l1.3701 -0.78613 l1.2129 3.3242 l2.5605 -2.8076 l0.29199 0.22461 l-8.2881 29.356 l-1.0107 -0.089844 l-1.2803 -1.7969 l-2.1338 1.9766 l-0.76367 -0.13477 l-1.9316 -2.6279 l-1.0781 2.2461 l-0.67383 -0.26953 z M83.9365296875 55.2539065 l0 -28.615 l1.0107 -0.35938 l1.5273 3.5938 l1.9316 -3.459 l1.3701 0.74121 l1.3027 -0.47168 l-0.78613 29.087 l-0.56152 0.17969 l-1.9316 -2.7627 l-1.3252 2.4258 l-1.1904 -0.44922 z M94.605425 28.8620625 l0.62891 -1.4824 l-0.31445 -0.60645 l13.162 -0.87598 l0.4043 1.7969 l-2.8525 1.9766 l2.7178 0.83105 l-0.35938 1.0107 l-6.7158 0.60645 l-0.15723 7.0752 l6.7158 -0.22461 l-0.76367 2.4033 l1.3252 0.53906 l-0.22461 1.2354 l-6.9629 0.69629 l0.29199 7.502 l6.9404 -0.26953 l-0.44922 2.3809 l1.2354 0.56152 l-0.5166 1.752 l-10.849 0.62891 l0.17969 -2.3359 l-2.8076 0.17969 l0.29199 -21.518 l-0.56152 -0.9209 l1.9766 -1.707 z M113.0233984375 27.6040625 l0.87598 0.13477 l1.2803 -0.9209 l1.3477 2.2686 l2.3809 -3.1895 l0.74121 0.24707 l-0.78613 24.752 l7.5918 0 l-1.8867 1.5947 l2.583 1.0107 l-1.3027 1.5723 l0.47168 0.65137 l-10.354 0.76367 l-0.4043 -2.5156 l-2.4482 0.35938 z M130.7226625 55.2539065 l0 -28.615 l1.0107 -0.35938 l1.5273 3.5938 l1.9316 -3.459 l1.3701 0.74121 l1.3027 -0.47168 l-0.78613 29.087 l-0.56152 0.17969 l-1.9316 -2.7627 l-1.3252 2.4258 l-1.1904 -0.44922 z M141.9755578125 27.0200625 l2.0215 -1.0557 l1.6172 1.6846 l2.0215 -0.67383 l9.3887 17.048 l0.9209 0 l-0.26953 -16.913 l1.1904 -0.69629 l2.0664 2.8525 l1.9316 -2.8975 l0.83105 0.13477 l-0.044922 29.536 l-0.5166 0.31445 l-1.6396 -1.707 l-2.3135 1.6172 l-0.9209 -0.17969 l-9.2764 -14.622 l-1.168 -0.13477 l-0.35938 14.847 l-1.3252 -0.17969 l-1.7969 -2.4482 l-1.3477 2.7178 l-0.78613 -0.4043 z M167.1767140625 28.8620625 l0.62891 -1.4824 l-0.31445 -0.60645 l13.162 -0.87598 l0.4043 1.7969 l-2.8525 1.9766 l2.7178 0.83105 l-0.35938 1.0107 l-6.7158 0.60645 l-0.15723 7.0752 l6.7158 -0.22461 l-0.76367 2.4033 l1.3252 0.53906 l-0.22461 1.2354 l-6.9629 0.69629 l0.29199 7.502 l6.9404 -0.26953 l-0.44922 2.3809 l1.2354 0.56152 l-0.5166 1.752 l-10.849 0.62891 l0.17969 -2.3359 l-2.8076 0.17969 l0.29199 -21.518 l-0.56152 -0.9209 l1.9766 -1.707 z"></path></g><g id="SvgjsG1013" rel="mainfill" name="slogan_text" xmlns:name="sloganText_mainfill" fill="#ff0000" transform="translate(159.39999961853027,211.65170005436974)"><path d="M1.46 9.84 l3.52 12.54 l0.04 0 l3.58 -12.54 l1.68 0 l3.58 12.54 l0.04 0 l3.52 -12.54 l1.36 0 l-4.12 14.14 l-0.02 0.02 l-1.6 0 l-3.58 -12.6 l-0.04 0 l-3.58 12.6 l-1.62 0 l-4.12 -14.16 l1.36 0 z M27.72 18.6 q0 -1.26 -0.94 -2.13 t-2.28 -0.87 q-1.3 0 -2.24 0.87 t-1.1 2.13 l6.56 0 z M24.58 14.52 q1.92 0 3.12 1.24 t1.22 3.2 l0 0.72 l-7.76 0 q0.08 1.56 1.03 2.51 t2.47 0.97 q0.94 0 1.79 -0.45 t1.31 -1.19 l0.88 0.74 q-1.3 1.98 -4 1.98 q-2.12 -0.02 -3.39 -1.38 t-1.29 -3.5 q0 -2.08 1.31 -3.45 t3.31 -1.39 z  M37.480000000000004 19.38 q0 1.66 1.04 2.72 t2.62 1.06 q1.56 0 2.69 -1.07 t1.17 -2.71 q0 -1.56 -1.11 -2.66 t-2.77 -1.12 q-1.56 0 -2.59 1.06 t-1.05 2.72 z M44.88 8.88 l1.2 0 l0 15.12 l-1.2 0 l0 -1.62 l-0.04 0 q-0.5 0.88 -1.53 1.37 t-2.17 0.49 q-2.06 0 -3.44 -1.35 t-1.42 -3.51 q0 -2.06 1.35 -3.44 t3.51 -1.42 q1.18 0 2.18 0.49 t1.52 1.37 l0.04 0 l0 -7.5 z M49.7 19.38 q0 1.66 1.04 2.72 t2.62 1.06 q1.64 0 2.65 -1.08 t1.01 -2.7 q0 -1.6 -1 -2.68 t-2.68 -1.1 q-1.62 0 -2.62 1.08 t-1.02 2.7 z M53.36 14.52 q2.12 0 3.48 1.38 t1.38 3.48 q0 2.14 -1.39 3.49 t-3.47 1.37 q-2.18 -0.02 -3.51 -1.4 t-1.35 -3.46 q0 -2.14 1.37 -3.49 t3.49 -1.37 z M65.30000000000001 14.52 q1.8 0 2.65 0.97 t0.87 3.05 l0 5.46 l-1.2 0 l0 -5.4 q0 -1.54 -0.57 -2.27 t-1.75 -0.73 q-1.46 0 -2.32 1.01 t-0.88 2.81 l0 4.58 l-1.2 0 l0 -6.74 q-0.02 -0.58 -0.1 -2.5 l1.2 0 q0.04 1.58 0.08 1.62 l0.06 0 q0.4 -0.84 1.27 -1.35 t1.89 -0.51 z M72.42 9.84 l1.2 0 l0 4.56 l-1.2 0 l0 -4.56 z M77.62 9.84 l1.2 0 l0 4.56 l-1.2 0 l0 -4.56 z M83.10000000000001 12.1 l1.2 0 l0 2.66 l2.64 0 l0 1.08 l-2.64 0 l0 6.04 q0 0.58 0.34 0.93 t0.94 0.35 q0.66 0 1.36 -0.32 l0.1 1.08 q-0.9 0.32 -1.58 0.32 q-1.18 0 -1.77 -0.66 t-0.59 -1.7 l0 -6.04 l-2 0 l0 -1.08 l2 0 l0 -2.66 z  M95.10000000000001 19.38 q0 1.6 1.15 2.67 t2.71 1.11 q1.62 0 2.64 -1.09 t1.02 -2.69 q0 -1.64 -1.03 -2.71 t-2.65 -1.07 q-1.58 0 -2.69 1.09 t-1.15 2.69 z M94.02000000000001 8.88 l1.2 0 l0 7.5 l0.04 0 q0.52 -0.9 1.54 -1.38 t2.16 -0.48 q2.16 0 3.51 1.4 t1.35 3.46 q0 2.14 -1.38 3.49 t-3.48 1.37 q-1.18 0 -2.21 -0.52 t-1.49 -1.34 l-0.04 0 l0 1.62 l-1.2 0 l0 -15.12 z M109.92 24.24 q-1.76 0 -2.64 -0.99 t-0.88 -3.03 l0 -5.46 l1.2 0 l0 5.4 q0 1.5 0.57 2.25 t1.75 0.75 q1.46 0 2.32 -1 t0.88 -2.82 l0 -4.58 l1.2 0 l0 6.74 q0.04 1.02 0.1 2.5 l-1.2 0 q-0.02 -1.14 -0.08 -1.62 l-0.06 0 q-0.4 0.86 -1.27 1.36 t-1.89 0.5 z M121.06000000000002 8.64 q0.84 0 1.38 0.24 l-0.24 1.04 q-0.4 -0.2 -1.08 -0.2 q-1.62 0 -1.62 2.38 l0 2.66 l2.16 0 l0 1.08 l-2.16 0 l0 8.16 l-1.2 0 l0 -8.16 l-1.92 0 l0 -1.08 l1.92 0 l0 -3.1 q0 -1.36 0.76 -2.18 t2 -0.84 z M126.98000000000002 8.64 q0.84 0 1.38 0.24 l-0.24 1.04 q-0.4 -0.2 -1.08 -0.2 q-1.62 0 -1.62 2.38 l0 2.66 l2.16 0 l0 1.08 l-2.16 0 l0 8.16 l-1.2 0 l0 -8.16 l-1.92 0 l0 -1.08 l1.92 0 l0 -3.1 q0 -1.36 0.76 -2.18 t2 -0.84 z M136.70000000000002 18.6 q0 -1.26 -0.94 -2.13 t-2.28 -0.87 q-1.3 0 -2.24 0.87 t-1.1 2.13 l6.56 0 z M133.56 14.52 q1.92 0 3.12 1.24 t1.22 3.2 l0 0.72 l-7.76 0 q0.08 1.56 1.03 2.51 t2.47 0.97 q0.94 0 1.79 -0.45 t1.31 -1.19 l0.88 0.74 q-1.3 1.98 -4 1.98 q-2.12 -0.02 -3.39 -1.38 t-1.29 -3.5 q0 -2.08 1.31 -3.45 t3.31 -1.39 z M144.70000000000002 14.52 q0.34 0 0.7 0.1 l-0.14 1.18 q-0.22 -0.08 -0.48 -0.08 q-1.46 0 -2.23 0.9 t-0.77 2.34 l0 5.04 l-1.2 0 l0 -6.74 q0 -0.2 -0.1 -2.5 l1.2 0 q0.04 1.38 0.08 1.62 q1.04 -1.86 2.94 -1.86 z"></path></g><defs id="SvgjsDefs1011"></defs><g id="SvgjsG1014" rel="mainfill" name="symbol" xmlns:name="symbol_mainfill" fill="#ff0000" transform="translate(63.22222222222222,161.5483512164113) scale(0.8555555555555555)"><g xmlns="http://www.w3.org/2000/svg"><g><path d="M50,5C25.147,5,5,25.147,5,50c0,24.852,20.147,45,45,45c24.852,0,45-20.148,45-45C95,25.147,74.852,5,50,5z M50,90    c-22.092,0-40-17.909-40-40c0-22.092,17.908-40,40-40c22.091,0,40,17.908,40,40C90,72.091,72.091,90,50,90z"></path><path d="M67.471,46.642L56.072,38.75l-9.841-6.813c-2.709-1.875-6.409,0.063-6.409,3.358V50v14.705c0,3.295,3.7,5.233,6.409,3.358    l9.841-6.813l11.399-7.892C69.817,51.734,69.817,48.266,67.471,46.642z"></path></g></g><g xmlns="http://www.w3.org/2000/svg" display="none"><path display="inline" d="M50,5C25.147,5,5,25.147,5,50c0,24.852,20.147,45,45,45c24.852,0,45-20.148,45-45   C95,25.147,74.852,5,50,5z M60.5,72.5h-21c-6.6,0-12-5.4-12-12v-21c0-6.6,5.4-12,12-12h21c6.6,0,12,5.4,12,12v21   C72.5,67.1,67.1,72.5,60.5,72.5z"></path></g></g><g id="SvgjsG1015" transform="translate(33.85098524172113,33.75678070720456) scale(7.659787064612864)" rel="mainfill" name="outline_container" xmlns:name="outlineContainer_mainfill" fill="#ff0000">  <title xmlns="http://www.w3.org/2000/svg">assets</title>  <path xmlns="http://www.w3.org/2000/svg" d="M674.55,398.59A24.47,24.47,0,1,1,699,374.13,24.5,24.5,0,0,1,674.55,398.59Zm0-48.47a24,24,0,1,0,24,24A24,24,0,0,0,674.55,350.12Z" transform="translate(-650.08 -349.66)"></path>  <path xmlns="http://www.w3.org/2000/svg" d="M674.55,397.24a23.12,23.12,0,1,1,23.12-23.12A23.14,23.14,0,0,1,674.55,397.24Zm0-45.3a22.19,22.19,0,1,0,22.19,22.19A22.21,22.21,0,0,0,674.55,351.94Z" transform="translate(-650.08 -349.66)"></path></g></svg>
